<svg width="24" height="24" viewBox="0 0 24 24" fill="none" xmlns="http://www.w3.org/2000/svg">
<path d="M19.375 11.1875C19.375 12.394 19.1374 13.5887 18.6756 14.7034C18.2139 15.8181 17.5372 16.8309 16.684 17.684C15.8309 18.5372 14.8181 19.2139 13.7034 19.6756C12.5887 20.1374 11.394 20.375 10.1875 20.375C8.98098 20.375 7.78627 20.1374 6.6716 19.6756C5.55692 19.2139 4.54409 18.5372 3.69096 17.684C2.83782 16.8309 2.16107 15.8181 1.69936 14.7034C1.23764 13.5887 1 12.394 1 11.1875C1 8.75082 1.96797 6.41395 3.69096 4.69096C5.41395 2.96797 7.75082 2 10.1875 2C12.6242 2 14.9611 2.96797 16.684 4.69096C18.407 6.41395 19.375 8.75082 19.375 11.1875Z" fill="#181717"/>
<path d="M22 23L19.375 20.375" stroke="#181717" stroke-width="2" stroke-linecap="round"/>
</svg>
