<svg width="24" height="24" viewBox="0 0 24 24" fill="none" xmlns="http://www.w3.org/2000/svg">
<path d="M5.27197 22.8439C5.15183 22.9328 5.01025 22.9857 4.86282 22.997C4.7154 23.0082 4.56782 22.9772 4.43634 22.9075C4.30486 22.8378 4.19456 22.7321 4.11757 22.6019C4.04059 22.4717 3.99991 22.3221 4 22.1696V5.59283C4 4.63995 4.36692 3.7261 5.02004 3.05231C5.67316 2.37853 6.55899 2 7.48264 2H15.5174C16.441 2 17.3268 2.37853 17.98 3.05231C18.6331 3.7261 19 4.63995 19 5.59283V22.1707C19 22.3233 18.9593 22.4729 18.8821 22.6031C18.805 22.7334 18.6946 22.8391 18.5629 22.9087C18.4313 22.9783 18.2836 23.0091 18.1361 22.9977C17.9886 22.9862 17.847 22.933 17.727 22.8439L11.5011 18.2219L5.27197 22.8439ZM17.3937 5.59283C17.3937 5.07974 17.1961 4.58767 16.8444 4.22486C16.4928 3.86205 16.0158 3.65823 15.5184 3.65823H7.48264C6.98529 3.65823 6.50831 3.86205 6.15663 4.22486C5.80495 4.58767 5.60737 5.07974 5.60737 5.59283V20.5522L11.0306 16.5272C11.1674 16.4257 11.3316 16.3711 11.5 16.3711C11.6684 16.3711 11.8326 16.4257 11.9694 16.5272L17.3926 20.5522L17.3937 5.59283Z" fill="#181717"/>
</svg>
