<svg width="35" height="34" viewBox="0 0 35 34" fill="none" xmlns="http://www.w3.org/2000/svg">
<path d="M33.25 16.25H29.75V12.75C29.75 12.2859 29.5656 11.8408 29.2374 11.5126C28.9092 11.1844 28.4641 11 28 11C27.5359 11 27.0908 11.1844 26.7626 11.5126C26.4344 11.8408 26.25 12.2859 26.25 12.75L26.3121 16.25H22.75C22.2859 16.25 21.8408 16.4344 21.5126 16.7626C21.1844 17.0908 21 17.5359 21 18C21 18.4641 21.1844 18.9092 21.5126 19.2374C21.8408 19.5656 22.2859 19.75 22.75 19.75L26.3121 19.6879L26.25 23.25C26.25 23.7141 26.4344 24.1592 26.7626 24.4874C27.0908 24.8156 27.5359 25 28 25C28.4641 25 28.9092 24.8156 29.2374 24.4874C29.5656 24.1592 29.75 23.7141 29.75 23.25V19.6879L33.25 19.75C33.7141 19.75 34.1592 19.5656 34.4874 19.2374C34.8156 18.9092 35 18.4641 35 18C35 17.5359 34.8156 17.0908 34.4874 16.7626C34.1592 16.4344 33.7141 16.25 33.25 16.25Z" fill="#020202"/>
<path d="M33.25 16.25H29.75V12.75C29.75 12.2859 29.5656 11.8408 29.2374 11.5126C28.9092 11.1844 28.4641 11 28 11C27.5359 11 27.0908 11.1844 26.7626 11.5126C26.4344 11.8408 26.25 12.2859 26.25 12.75L26.3121 16.25H22.75C22.2859 16.25 21.8408 16.4344 21.5126 16.7626C21.1844 17.0908 21 17.5359 21 18C21 18.4641 21.1844 18.9092 21.5126 19.2374C21.8408 19.5656 22.2859 19.75 22.75 19.75L26.3121 19.6879L26.25 23.25C26.25 23.7141 26.4344 24.1592 26.7626 24.4874C27.0908 24.8156 27.5359 25 28 25C28.4641 25 28.9092 24.8156 29.2374 24.4874C29.5656 24.1592 29.75 23.7141 29.75 23.25V19.6879L33.25 19.75C33.7141 19.75 34.1592 19.5656 34.4874 19.2374C34.8156 18.9092 35 18.4641 35 18C35 17.5359 34.8156 17.0908 34.4874 16.7626C34.1592 16.4344 33.7141 16.25 33.25 16.25Z" fill="url(#paint0_linear_345_516)"/>
<path d="M3.26904 11.8646C3.26904 11.4632 3.26904 11.0264 3.26904 10.5542C3.29273 10.0583 3.32826 9.5507 3.37564 9.03125C2.99662 9.05486 3.14032 8.97442 2 9.03125C1.52623 9.05486 0.307953 9.07847 0 9.10208L2.19375 8.14583C3 8 3.5533 7.79167 3.9704 7.26042C4.5 6.5 4.85872 6.19792 5.03639 5.84375C5.45871 5.00188 6.21828 3.54167 6.21828 3.54167L7.6396 0V16.2917C8.39764 15.5833 9.20305 15.0757 10.0558 14.7688C10.9086 14.4618 11.7614 14.3083 12.6142 14.3083C14.0829 14.3083 15.374 14.6743 16.4873 15.4062C17.6244 16.1382 18.5127 17.1771 19.1523 18.5229C19.7919 19.8688 20.2538 21.5569 20.2538 23.375C20.2538 25.3111 19.7327 26.9167 18.9746 28.4042C18.2166 29.8917 17.1743 31.0604 15.8477 31.9104C14.5212 32.7368 12.9932 33.15 11.264 33.15C10.577 33.15 9.73605 33.0083 8.74112 32.725C7.76989 32.4417 6.88156 31.875 6.07615 31.025L5.08122 32.5833L3.26904 34V11.8646ZM7.6396 27.2C7.6396 28.1444 7.79358 28.8882 8.10153 29.4313C8.40948 29.9743 8.80034 30.3639 9.27412 30.6C9.77158 30.8125 10.269 30.9306 10.7665 30.9542C12 31 13.1946 30.6354 13.8579 29.9979C14.5448 29.3604 15.5398 28.4396 15.8477 27.3771C16.1794 26.291 16.4873 25.3347 16.4873 24.0833C16.4873 22.8083 16.1557 21.4035 15.8477 20.3646C15.5398 19.3021 15.1085 18.3113 13.8579 17.7083C13.4726 17.5226 12.022 17 10.9797 17C10.3401 17.0236 9.7242 17.1889 9.13198 17.4958C8.53977 17.8028 8.04231 18.2042 7.6396 18.7V27.2Z" fill="url(#paint1_linear_345_516)"/>
<path d="M25.6193 33.3625C24.9323 33.3625 24.352 33.1146 23.8782 32.6188C23.4281 32.0993 23.2031 31.4854 23.2031 30.7771C23.2031 30.0451 23.4399 29.4312 23.9137 28.9354C24.4112 28.416 24.9797 28.1562 25.6193 28.1562C26.3063 28.1562 26.8748 28.416 27.3249 28.9354C27.775 29.4312 28 30.0451 28 30.7771C28 31.4854 27.775 32.0993 27.3249 32.6188C26.8748 33.1146 26.3063 33.3625 25.6193 33.3625Z" fill="url(#paint2_linear_345_516)"/>
<defs>
<linearGradient id="paint0_linear_345_516" x1="27.9421" y1="11" x2="27.9813" y2="25.0001" gradientUnits="userSpaceOnUse">
<stop/>
<stop offset="1" stop-color="#373737"/>
</linearGradient>
<linearGradient id="paint1_linear_345_516" x1="13.8843" y1="2.5605e-09" x2="13.9999" y2="34" gradientUnits="userSpaceOnUse">
<stop/>
<stop offset="1" stop-color="#373737"/>
</linearGradient>
<linearGradient id="paint2_linear_345_516" x1="13.8843" y1="2.5605e-09" x2="13.9999" y2="34" gradientUnits="userSpaceOnUse">
<stop/>
<stop offset="1" stop-color="#373737"/>
</linearGradient>
</defs>
</svg>
