<svg width="26" height="24" viewBox="0 0 26 24" fill="none" xmlns="http://www.w3.org/2000/svg">
<path d="M1.85714 3H11.1429C11.6354 3 12.1078 3.18964 12.4561 3.52721C12.8043 3.86477 13 4.32261 13 4.8C13 5.27739 12.8043 5.73523 12.4561 6.07279C12.1078 6.41036 11.6354 6.6 11.1429 6.6H1.85714C1.3646 6.6 0.892226 6.41036 0.543945 6.07279C0.195663 5.73523 0 5.27739 0 4.8C0 4.32261 0.195663 3.86477 0.543945 3.52721C0.892226 3.18964 1.3646 3 1.85714 3ZM14.8571 17.4H24.1429C24.6354 17.4 25.1078 17.5896 25.4561 17.9272C25.8043 18.2648 26 18.7226 26 19.2C26 19.6774 25.8043 20.1352 25.4561 20.4728C25.1078 20.8104 24.6354 21 24.1429 21H14.8571C14.3646 21 13.8922 20.8104 13.5439 20.4728C13.1957 20.1352 13 19.6774 13 19.2C13 18.7226 13.1957 18.2648 13.5439 17.9272C13.8922 17.5896 14.3646 17.4 14.8571 17.4ZM1.85714 10.2H24.1429C24.6354 10.2 25.1078 10.3896 25.4561 10.7272C25.8043 11.0648 26 11.5226 26 12C26 12.4774 25.8043 12.9352 25.4561 13.2728C25.1078 13.6104 24.6354 13.8 24.1429 13.8H1.85714C1.3646 13.8 0.892226 13.6104 0.543945 13.2728C0.195663 12.9352 0 12.4774 0 12C0 11.5226 0.195663 11.0648 0.543945 10.7272C0.892226 10.3896 1.3646 10.2 1.85714 10.2Z" fill="black"/>
</svg>
