<svg width="24" height="24" viewBox="0 0 24 24" fill="none" xmlns="http://www.w3.org/2000/svg">
<path d="M22 12.0788C22.0034 14.0802 21.3834 16.0369 20.2197 17.6973C19.2599 19.0717 17.9622 20.1978 16.4414 20.9761C14.9206 21.7545 13.2234 22.161 11.5 22.1599C9.77658 22.161 8.07943 21.7545 6.55859 20.9761C5.03775 20.1978 3.74008 19.0717 2.78033 17.6973C1.86652 16.3895 1.28455 14.8943 1.08109 13.3316C0.877628 11.7689 1.05833 10.1821 1.60871 8.69856C2.15908 7.21499 3.06383 5.87586 4.25041 4.78851C5.43699 3.70117 6.87241 2.89585 8.44159 2.43713C10.0108 1.97841 11.6701 1.87904 13.2864 2.14698C14.9028 2.41493 16.4314 3.04273 17.7495 3.98008C19.0676 4.91742 20.1387 6.13823 20.8768 7.54463C21.6149 8.95103 21.9996 10.5039 22 12.0788Z" stroke="#181717" stroke-width="1.5"/>
<path d="M12.9584 8.7184C12.9584 9.49129 12.3051 10.1186 11.5001 10.1186V11.7987C12.351 11.7987 13.167 11.4742 13.7687 10.8965C14.3704 10.3189 14.7084 9.53536 14.7084 8.7184H12.9584ZM11.5001 10.1186C10.6951 10.1186 10.0418 9.49129 10.0418 8.7184H8.29175C8.29175 9.53536 8.62977 10.3189 9.23145 10.8965C9.83313 11.4742 10.6492 11.7987 11.5001 11.7987V10.1186ZM10.0418 8.7184C10.0418 7.94552 10.6951 7.31825 11.5001 7.31825V5.63806C10.6492 5.63806 9.83313 5.9626 9.23145 6.54027C8.62977 7.11795 8.29175 7.90144 8.29175 8.7184H10.0418ZM11.5001 7.31825C12.3051 7.31825 12.9584 7.94552 12.9584 8.7184H14.7084C14.7084 7.90144 14.3704 7.11795 13.7687 6.54027C13.167 5.9626 12.351 5.63806 11.5001 5.63806V7.31825ZM3.52709 18.6382L2.68826 18.3985L2.55176 18.8376L2.86326 19.1848L3.52709 18.6382ZM19.4731 18.6382L20.1381 19.186L20.4484 18.8387L20.3119 18.3985L19.4731 18.6382ZM8.00009 16.2792H15.0001V14.5991H8.00009V16.2792ZM8.00009 14.5991C6.8067 14.5991 5.64519 14.9689 4.68819 15.6534C3.73119 16.3379 3.0298 17.3007 2.68826 18.3985L4.36592 18.8779C4.59988 18.127 5.07985 17.4686 5.73455 17.0005C6.38925 16.5323 7.18376 16.2794 8.00009 16.2792V14.5991ZM11.5001 21.3198C10.1111 21.3213 8.73825 21.0335 7.47635 20.4762C6.21446 19.9188 5.09353 19.1053 4.19092 18.0916L2.86326 19.1848C3.93013 20.3822 5.25474 21.3444 6.74579 22.0028C8.23684 22.6613 9.85888 23.0015 11.5001 23V21.3198ZM15.0001 16.2792C16.7151 16.2792 18.1676 17.3747 18.6342 18.8779L20.3119 18.3985C19.9704 17.3007 19.269 16.3379 18.312 15.6534C17.355 14.9689 16.1935 14.5991 15.0001 14.5991V16.2792ZM18.8092 18.0916C17.9066 19.1053 16.7857 19.9188 15.5238 20.4762C14.2619 21.0335 12.8891 21.3213 11.5001 21.3198V23C13.1413 23.0015 14.7633 22.6613 16.2544 22.0028C17.7454 21.3444 19.0712 20.3833 20.1381 19.186L18.8092 18.0916Z" fill="#181717"/>
</svg>
