<svg width="15" height="21" viewBox="0 0 15 21" fill="none" xmlns="http://www.w3.org/2000/svg">
<path d="M3.04688 0C2.23879 0 1.46381 0.326842 0.892409 0.908624C0.321009 1.49041 4.28517e-08 2.27947 4.28517e-08 3.10224V20.2838C-4.56491e-05 20.4171 0.0364499 20.5478 0.105378 20.6611C0.174306 20.7744 0.272929 20.8658 0.390144 20.9252C0.50736 20.9845 0.638513 21.0093 0.768839 20.9969C0.899165 20.9844 1.02349 20.9352 1.12781 20.8547L7.5 15.9312L13.8722 20.8537C13.9764 20.9342 14.1007 20.9834 14.2309 20.9959C14.3612 21.0084 14.4923 20.9836 14.6094 20.9244C14.7266 20.8652 14.8253 20.7739 14.8943 20.6607C14.9633 20.5476 14.9999 20.417 15 20.2838V3.10224C15 2.69484 14.9212 2.29144 14.7681 1.91506C14.615 1.53868 14.3905 1.19669 14.1076 0.908624C13.8247 0.620555 13.4888 0.392046 13.1191 0.236144C12.7494 0.0802417 12.3532 0 11.9531 0H3.04688Z" fill="#181717"/>
</svg>
