<svg width="22" height="22" viewBox="0 0 22 22" fill="none" xmlns="http://www.w3.org/2000/svg">
<path d="M18.375 9.1875C18.375 10.394 18.1374 11.5887 17.6756 12.7034C17.2139 13.8181 16.5372 14.8309 15.684 15.684C14.8309 16.5372 13.8181 17.2139 12.7034 17.6756C11.5887 18.1374 10.394 18.375 9.1875 18.375C7.98098 18.375 6.78627 18.1374 5.6716 17.6756C4.55692 17.2139 3.54409 16.5372 2.69096 15.684C1.83782 14.8309 1.16107 13.8181 0.699357 12.7034C0.237642 11.5887 -1.79785e-08 10.394 0 9.1875C3.63093e-08 6.75082 0.967966 4.41395 2.69096 2.69096C4.41395 0.967966 6.75082 0 9.1875 0C11.6242 0 13.9611 0.967966 15.684 2.69096C17.407 4.41395 18.375 6.75082 18.375 9.1875Z" fill="#181717"/>
<path d="M21 21L18.375 18.375" stroke="#181717" stroke-width="2" stroke-linecap="round"/>
</svg>
