<svg width="20" height="24" viewBox="0 0 20 24" fill="none" xmlns="http://www.w3.org/2000/svg">
<path d="M8.54286 0.951432C8.43948 0.889669 8.32129 0.857056 8.20086 0.857056C8.08043 0.857056 7.96225 0.889669 7.85886 0.951432C7.77337 1.01917 7.71568 1.11591 7.69673 1.22332C7.67777 1.33074 7.69886 1.44138 7.75601 1.53429C9.85943 5.17372 10.3034 10.1331 7.43029 12.8674C6.32593 11.9389 5.44918 10.7695 4.86743 9.44915C3.80536 10.039 2.9251 10.9084 2.32219 11.9631C1.71929 13.0178 1.41676 14.2175 1.44743 15.432C1.49091 16.5028 1.74811 17.554 2.20389 18.5239C2.65967 19.4938 3.30483 20.3628 4.1014 21.0796C4.89798 21.7965 5.82989 22.3468 6.8423 22.6982C7.8547 23.0496 8.92716 23.1949 9.99658 23.1257C15.5011 23.1257 18.3571 19.7074 18.544 15.432C18.7669 10.3029 15.1257 3.99429 8.54286 0.951432Z" stroke="#181717" stroke-width="1.71429" stroke-linecap="round" stroke-linejoin="round"/>
</svg>
