<svg width="21" height="21" viewBox="0 0 21 21" fill="none" xmlns="http://www.w3.org/2000/svg">
<path fill-rule="evenodd" clip-rule="evenodd" d="M10.5 2.1C9.0308 2.09973 7.58722 2.48481 6.31336 3.21681C5.03949 3.9488 3.97989 5.00211 3.24032 6.2716C2.50076 7.54108 2.10709 8.98234 2.09861 10.4515C2.09013 11.9207 2.46714 13.3664 3.19201 14.6443C3.68195 14.0076 4.31176 13.4921 5.03275 13.1376C5.75373 12.7831 6.54658 12.5991 7.35 12.6H13.65C14.4534 12.5991 15.2463 12.7831 15.9673 13.1376C16.6882 13.4921 17.3181 14.0076 17.808 14.6443C18.5329 13.3664 18.9099 11.9207 18.9014 10.4515C18.8929 8.98234 18.4992 7.54108 17.7597 6.2716C17.0201 5.00211 15.9605 3.9488 14.6866 3.21681C13.4128 2.48481 11.9692 2.09973 10.5 2.1ZM18.8401 16.8798C20.244 15.0496 21.0034 12.8066 21 10.5C21 4.70085 16.2991 0 10.5 0C4.70086 0 1.18159e-05 4.70085 1.18159e-05 10.5C-0.00345469 12.8066 0.755912 15.0496 2.15986 16.8798L2.15461 16.8987L2.52736 17.3323C3.51214 18.4837 4.73486 19.4078 6.11125 20.041C7.48764 20.6741 8.98496 21.0013 10.5 21C12.6287 21.0039 14.7078 20.3573 16.4587 19.1467C17.2052 18.631 17.8821 18.0212 18.4726 17.3323L18.8454 16.8987L18.8401 16.8798ZM10.5 4.2C9.66457 4.2 8.86335 4.53187 8.27262 5.12261C7.68188 5.71335 7.35 6.51456 7.35 7.34999C7.35 8.18542 7.68188 8.98664 8.27262 9.57738C8.86335 10.1681 9.66457 10.5 10.5 10.5C11.3354 10.5 12.1366 10.1681 12.7274 9.57738C13.3181 8.98664 13.65 8.18542 13.65 7.34999C13.65 6.51456 13.3181 5.71335 12.7274 5.12261C12.1366 4.53187 11.3354 4.2 10.5 4.2Z" fill="#181717"/>
</svg>
