<svg width="32" height="36" viewBox="0 0 32 36" fill="none" xmlns="http://www.w3.org/2000/svg">
<path d="M32 9.52965C32 12.0571 30.9886 14.481 29.1882 16.2681C27.3879 18.0553 24.9461 19.0593 22.4 19.0593C19.8539 19.0593 17.4121 18.0553 15.6118 16.2681C13.8114 14.481 12.8 12.0571 12.8 9.52965C12.8 7.00223 13.8114 4.57833 15.6118 2.79117C17.4121 1.00401 19.8539 0 22.4 0C24.9461 0 27.3879 1.00401 29.1882 2.79117C30.9886 4.57833 32 7.00223 32 9.52965ZM23.4667 5.29425C23.4667 5.01343 23.3543 4.7441 23.1542 4.54553C22.9542 4.34696 22.6829 4.2354 22.4 4.2354C22.1171 4.2354 21.8458 4.34696 21.6458 4.54553C21.4457 4.7441 21.3333 5.01343 21.3333 5.29425V8.4708H18.1333C17.8504 8.4708 17.5791 8.58236 17.3791 8.78093C17.179 8.97951 17.0667 9.24883 17.0667 9.52965C17.0667 9.81048 17.179 10.0798 17.3791 10.2784C17.5791 10.4769 17.8504 10.5885 18.1333 10.5885H21.3333V13.7651C21.3333 14.0459 21.4457 14.3152 21.6458 14.5138C21.8458 14.7123 22.1171 14.8239 22.4 14.8239C22.6829 14.8239 22.9542 14.7123 23.1542 14.5138C23.3543 14.3152 23.4667 14.0459 23.4667 13.7651V10.5885H26.6667C26.9496 10.5885 27.2209 10.4769 27.4209 10.2784C27.621 10.0798 27.7333 9.81048 27.7333 9.52965C27.7333 9.24883 27.621 8.97951 27.4209 8.78093C27.2209 8.58236 26.9496 8.4708 26.6667 8.4708H23.4667V5.29425ZM23.4667 32.8625V21.1304C24.1885 21.0656 24.9026 20.9345 25.6 20.7386V34.9421C25.5998 35.1373 25.5453 35.3287 25.4424 35.495C25.3395 35.6614 25.1923 35.7963 25.0171 35.8849C24.8418 35.9734 24.6453 36.0121 24.4492 35.9967C24.2532 35.9813 24.0652 35.9124 23.9061 35.7976L12.8 27.78L1.69387 35.7976C1.53479 35.9124 1.34685 35.9813 1.1508 35.9967C0.954746 36.0121 0.758223 35.9734 0.582945 35.8849C0.407666 35.7963 0.260456 35.6614 0.157581 35.495C0.0547049 35.3287 0.00016926 35.1373 0 34.9421V7.41195C0 6.00783 0.561903 4.66122 1.5621 3.66835C2.56229 2.67549 3.91885 2.1177 5.33333 2.1177H13.3483C12.8049 2.77094 12.335 3.48104 11.9467 4.2354H5.33333C4.48464 4.2354 3.67071 4.57007 3.07059 5.16579C2.47047 5.76151 2.13333 6.56948 2.13333 7.41195V32.8625L12.1728 25.6157C12.3551 25.4842 12.5746 25.4133 12.8 25.4133C13.0254 25.4133 13.2449 25.4842 13.4272 25.6157L23.4667 32.8625Z" fill="black"/>
</svg>
